# xmcd
#
# Track frame offsets:
#	150
#	15528
#	32009
#	48257
#	64222
#	77376
#	95005
#	112765
#	128577
#	141985
#	158677
#	178650
#	196917
#	213293
#	236844
#	252936
#	272430
#	292119
#	303784
#	321599
#
# Disc length: 4525 seconds
#
# Revision: 0
# Processed by: cddbd v1.5.2PL0 Copyright (c) Steve Scherf et al.
# Submitted via: EasyCDDAExtractor 16.0.9.1
#
DISCID=1211ab14
DTITLE=Nu Urban Traxx Volume 222 US
DYEAR=2016
DGENRE=blues
TTITLE0=Drake - Summer Sixteen
TTITLE1=Rihanna ft. Drake - Work
TTITLE2=Nelly - Die A Happy Man
TTITLE3=J. Cole - Love Yourz
TTITLE4=Tory Lanez - LA Confidential
TTITLE5=Justin Bieber - Love Yourself
TTITLE6=Lil Dicky ft. Fetty Wap and Rich Homie Quan - $ave Dat Money
TTITLE7=K. Michelle - Not A Little Bit
TTITLE8=Lil Bibby ft. Future - Aww Man
TTITLE9=Dreezy ft. Jeremih - Body
TTITLE10=DJ Mustard ft. Travi$ Scott - Whole Lotta Lovin'
TTITLE11=Mack Wilds - Love in the 90z
TTITLE12=Anthony Hamilton - Amen
TTITLE13=Tank ft. Chris Brown, Siya and Sage The Gemini - #BDAY
TTITLE14=Lil Durk ft. Dej Loaf - My Beyonce
TTITLE15=Musiq Soulchild - I Do
TTITLE16=S-8ighty ft. Lil Wayne - Halfway
TTITLE17=Plies - Ran Off On Da Plug Twice
TTITLE18=The Internet ft. Kaytranada - Girl
TTITLE19=Post Malone - Too Young
EXTD=
EXTT0=
EXTT1=
EXTT2=
EXTT3=
EXTT4=
EXTT5=
EXTT6=
EXTT7=
EXTT8=
EXTT9=
EXTT10=
EXTT11=
EXTT12=
EXTT13=
EXTT14=
EXTT15=
EXTT16=
EXTT17=
EXTT18=
EXTT19=
PLAYORDER=
